<svg xmlns="http://www.w3.org/2000/svg" width="22.439" height="22.439" viewBox="0 0 22.439 22.439"><g transform="translate(1 1)"><path d="M19.79,15.145A4.645,4.645,0,1,1,15.145,10.5a4.645,4.645,0,0,1,4.645,4.645Z" transform="translate(-4.926 -4.926)" fill="none" stroke="#fff" stroke-linecap="round" stroke-linejoin="round" stroke-width="2"/><path d="M18,1.5V3.358" transform="translate(-7.781 -1.5)" fill="none" stroke="#fff" stroke-linecap="round" stroke-linejoin="round" stroke-width="2"/><path d="M18,31.5v1.858" transform="translate(-7.781 -12.919)" fill="none" stroke="#fff" stroke-linecap="round" stroke-linejoin="round" stroke-width="2"/><path d="M6.33,6.33,7.649,7.649" transform="translate(-3.338 -3.338)" fill="none" stroke="#fff" stroke-linecap="round" stroke-linejoin="round" stroke-width="2"/><path d="M27.54,27.54l1.319,1.319" transform="translate(-11.412 -11.412)" fill="none" stroke="#fff" stroke-linecap="round" stroke-linejoin="round" stroke-width="2"/><path d="M1.5,18H3.358" transform="translate(-1.5 -7.781)" fill="none" stroke="#fff" stroke-linecap="round" stroke-linejoin="round" stroke-width="2"/><path d="M31.5,18h1.858" transform="translate(-12.919 -7.781)" fill="none" stroke="#fff" stroke-linecap="round" stroke-linejoin="round" stroke-width="2"/><path d="M6.33,28.859,7.649,27.54" transform="translate(-3.338 -11.412)" fill="none" stroke="#fff" stroke-linecap="round" stroke-linejoin="round" stroke-width="2"/><path d="M27.54,7.649,28.859,6.33" transform="translate(-11.412 -3.338)" fill="none" stroke="#fff" stroke-linecap="round" stroke-linejoin="round" stroke-width="2"/></g></svg>